<svg width="122" height="43" viewBox="0 0 122 43" fill="none" xmlns="http://www.w3.org/2000/svg">
<path d="M56.1045 12.9972H62.1265C62.9063 12.9972 63.6428 13.1055 64.3577 13.3221C65.0509 13.517 65.7224 13.7987 66.3506 14.1669C66.9571 14.5352 67.5203 14.9684 68.0402 15.4666C68.5384 15.9648 68.9933 16.5497 69.3399 17.1563C69.6865 17.7844 69.9681 18.4343 70.1631 19.1492C70.358 19.864 70.4663 20.6005 70.4663 21.3803C70.4663 22.1385 70.358 22.8967 70.1631 23.6115C69.9681 24.3264 69.6865 24.9762 69.3183 25.6044C68.95 26.2109 68.5168 26.7958 67.9969 27.294C67.477 27.7923 66.9138 28.2255 66.2856 28.5938C65.6574 28.9403 64.9859 29.2219 64.2927 29.4169C63.5779 29.6119 62.8414 29.7202 62.0615 29.7202H56.1045V12.9972ZM62.0399 27.0558C62.5814 27.0558 63.1013 26.9908 63.5995 26.8391C64.0977 26.7092 64.5526 26.5142 64.9859 26.2543C65.4191 25.9943 65.809 25.6911 66.1556 25.3445C66.5022 24.9979 66.8055 24.608 67.0438 24.1747C67.282 23.7415 67.477 23.2866 67.607 22.7884C67.7369 22.3118 67.8019 21.7919 67.8019 21.272C67.8019 20.4705 67.6503 19.6907 67.347 19.0192C67.0438 18.326 66.6322 17.7195 66.1123 17.2212C65.5924 16.723 64.9642 16.3114 64.271 16.0298C63.5779 15.7482 62.8197 15.5966 62.0615 15.5966H58.7689V27.0124L62.0399 27.0558Z" fill="white"/>
<path d="M73.0658 34.5075L75.6002 28.2472L71.3545 18.131H73.434C73.9106 18.131 74.3222 18.4126 74.5171 18.8892C74.7121 19.3441 76.9866 24.8029 77.0083 24.8896L78.8279 20.5355C79.1528 19.7124 79.4344 19.0625 79.4994 18.9325C79.8026 18.2177 80.3659 18.1527 80.6041 18.1527H82.6837L80.3875 23.6115C80.0193 24.4997 79.5644 25.6044 79.1095 26.7308C78.0697 29.2869 76.8783 32.1896 76.3367 33.4027C76.0985 33.9659 75.6652 34.5291 74.4305 34.5291L73.0658 34.5075Z" fill="white"/>
<path d="M117.841 29.7635C115.935 29.7635 114.397 28.1389 113.855 27.294L113.704 27.0558L113.899 26.8391C114.375 26.3409 114.895 26.081 115.437 26.081C115.913 26.081 116.368 26.2759 116.758 26.6225C117.083 26.9258 117.451 27.2074 117.819 27.2074C117.993 27.2074 118.188 27.1857 118.404 27.1208C118.599 27.0774 118.772 26.9908 118.946 26.8825C119.076 26.7958 119.206 26.6875 119.292 26.5575C119.357 26.4709 119.379 26.3626 119.379 26.211C119.379 26.081 119.357 25.9943 119.292 25.9077C119.184 25.7777 119.076 25.6477 118.902 25.5394C118.708 25.4095 118.491 25.3012 118.253 25.2145C117.993 25.1062 117.733 25.0412 117.473 24.9762C117.061 24.8679 116.671 24.7163 116.281 24.5213C115.891 24.3264 115.523 24.0881 115.22 23.8281C114.852 23.5249 114.57 23.1566 114.353 22.745C114.159 22.3768 114.05 21.9652 114.05 21.5103C114.05 21.0121 114.137 20.5355 114.332 20.1023C114.527 19.669 114.787 19.3008 115.133 18.9975C115.458 18.6943 115.87 18.456 116.346 18.2827C116.801 18.1311 117.299 18.0444 117.841 18.0444C118.621 18.0444 119.357 18.2177 119.986 18.5643C120.614 18.9109 121.415 19.6257 121.632 20.2539L121.719 20.4922L121.545 20.6655C121.09 21.0771 120.614 21.2937 120.072 21.2937C119.704 21.2937 119.357 21.1854 118.989 20.9904C118.686 20.8171 118.036 20.6222 117.841 20.6222C117.646 20.6222 117.451 20.6438 117.299 20.7088C117.148 20.7521 117.04 20.8171 116.931 20.9038C116.845 20.9688 116.78 21.0771 116.715 21.1637C116.671 21.272 116.65 21.3803 116.65 21.5103C116.65 21.597 116.671 21.6619 116.715 21.7269C116.78 21.8352 116.866 21.9219 116.975 21.9869C117.105 22.0735 117.256 22.1602 117.429 22.2252C117.624 22.2901 117.798 22.3551 117.971 22.3985L118.274 22.4851C118.816 22.6367 119.292 22.81 119.726 23.0266C120.181 23.2433 120.57 23.5032 120.895 23.8065C121.242 24.1097 121.502 24.478 121.697 24.8679C121.892 25.2795 122 25.7127 122 26.1676C122 26.7308 121.87 27.2724 121.632 27.7273C121.394 28.1822 121.069 28.5504 120.679 28.8537C120.289 29.1353 119.856 29.3736 119.336 29.5252C118.859 29.6769 118.361 29.7635 117.841 29.7635Z" fill="white"/>
<path d="M89.9404 28.897C88.6191 28.897 87.6009 28.3121 86.8644 27.4673V34.4425H84.2217V18.0877H85.5431C85.8896 18.0877 86.2362 18.2177 86.4745 18.456C86.7128 18.7159 86.8861 19.0408 86.8861 19.3658V19.3874C87.6443 18.521 88.6624 17.9577 89.9621 17.9577C92.9948 17.9577 95.1826 20.2539 95.1826 23.4166C95.161 26.6009 92.9514 28.897 89.9404 28.897ZM89.7022 20.0156C88.1208 20.0156 86.8644 21.402 86.8644 23.4166C86.8644 25.4528 88.1208 26.8391 89.7022 26.8391C91.2618 26.8391 92.5399 25.4528 92.5399 23.4166C92.5399 21.402 91.2401 20.0156 89.7022 20.0156Z" fill="white"/>
<path d="M98.4101 17.1129C97.5436 17.1129 96.8071 16.3981 96.8071 15.51C96.8071 14.6218 97.5436 13.907 98.4101 13.907C99.2982 13.907 100.013 14.6218 100.013 15.51C99.9914 16.4198 99.2982 17.1129 98.4101 17.1129ZM98.4101 18.521H99.7315V29.6119H97.0671V19.864C97.0671 19.1275 97.6736 18.521 98.4101 18.521Z" fill="white"/>
<path d="M104.822 25.1928C104.822 26.8608 105.819 27.619 106.772 27.554C107.985 27.4673 108.981 26.4926 108.981 24.3697V19.4958C108.981 18.7376 109.631 18.1094 110.389 18.1094H111.776V29.6552H108.981V28.2472C108.331 29.0703 107.227 29.8068 105.645 29.8068C103.652 29.8068 102.028 28.2472 102.028 25.9077V18.1094H104.822V25.1928Z" fill="white"/>
<path d="M0.802583 21.5791L14.4713 31.7819C14.4929 31.7819 14.4929 31.8035 14.5146 31.8035L19.5835 35.5727C20.0167 35.8976 20.6232 35.5944 20.6232 35.0528L20.6449 6.95728C20.6016 6.45906 20.5366 5.93917 20.4283 5.44095C20.32 4.96438 20.1683 4.50948 19.9517 4.11957C20.32 6.87063 18.7603 10.0766 16.1176 12.1778C15.5327 12.6544 14.7312 13.1743 13.8431 13.5425C12.8899 13.9541 10.0089 14.9505 10.0089 14.9505L1.32247 18.0915C-0.172204 18.6331 -0.475471 20.626 0.802583 21.5791Z" fill="#F2EEFF"/>
<path d="M14.3631 13.3042C14.3847 13.2826 14.4281 13.2826 14.4497 13.2609C14.4931 13.2392 14.5364 13.2176 14.6014 13.1742C14.6663 13.1526 14.7097 13.1093 14.7747 13.0876C14.7963 13.0659 14.8396 13.0443 14.8613 13.0443C14.9263 13.001 15.0129 12.9576 15.0779 12.9143C15.0996 12.8926 15.1212 12.8926 15.1429 12.871C15.2079 12.8277 15.2729 12.7843 15.3595 12.741C15.4029 12.7193 15.4245 12.6977 15.4678 12.676C15.5112 12.6327 15.5761 12.611 15.6195 12.5677C15.6845 12.5244 15.7494 12.4594 15.8361 12.4161C15.8578 12.4161 15.8578 12.3944 15.8794 12.3944C15.9661 12.3294 16.0527 12.2644 16.1394 12.1995C18.7821 10.0983 20.3418 6.89229 19.9735 4.14122C19.8219 3.88128 19.6269 3.643 19.4103 3.4697L14.9046 0.133768C14.4714 -0.191161 13.8432 0.112106 13.8432 0.653654V8.51693C13.8432 13.4559 10.009 14.9505 10.009 14.9505C10.009 14.9505 12.9117 13.9757 13.8432 13.5642C14.0165 13.4775 14.1898 13.3909 14.3631 13.3042Z" fill="#DBD9FF"/>
<path d="M42.5668 20.561L28.8981 10.3582C28.8764 10.3582 28.8764 10.3365 28.8548 10.3365L23.7859 6.56736C23.3526 6.24243 22.7461 6.5457 22.7461 7.08725V35.1828C22.7894 35.681 22.8544 36.2009 22.9627 36.6991C23.071 37.1757 23.2227 37.6306 23.4393 38.0205C23.071 35.2694 24.6307 32.0635 27.2734 29.9622C27.8583 29.4857 28.6598 28.9658 29.5479 28.5975C30.4794 28.186 33.3821 27.2112 33.3821 27.2112L42.0685 24.0702C43.5632 23.507 43.8448 21.5141 42.5668 20.561Z" fill="#F2EEFF"/>
<path d="M29.0282 28.8358C29.0066 28.8575 28.9632 28.8575 28.9416 28.8791C28.8982 28.9008 28.8549 28.9225 28.7899 28.9658C28.7249 28.9875 28.6816 29.0308 28.6166 29.0524C28.595 29.0741 28.5516 29.0958 28.53 29.0958C28.465 29.1391 28.3784 29.1824 28.3134 29.2257C28.2917 29.2474 28.27 29.2474 28.2484 29.2691C28.1834 29.3124 28.1184 29.3557 28.0318 29.399C27.9884 29.4207 27.9668 29.4424 27.9235 29.464C27.8801 29.5073 27.8151 29.529 27.7718 29.5723C27.7068 29.6157 27.6418 29.6806 27.5552 29.724C27.5335 29.724 27.5335 29.7456 27.5119 29.7456C27.4252 29.8106 27.3386 29.8756 27.2519 29.9406C24.6092 32.0418 23.0495 35.2478 23.4178 37.9988C23.5694 38.2588 23.7644 38.497 23.981 38.6703L28.465 42.0063C28.8982 42.3312 29.5264 42.0279 29.5264 41.4864V33.6231C29.5264 28.7058 33.3606 27.1895 33.3606 27.1895C33.3606 27.1895 30.4579 28.1643 29.5264 28.5759C29.3748 28.6625 29.2015 28.7492 29.0282 28.8358Z" fill="#DBD9FF"/>
</svg>
